<svg xmlns="http://www.w3.org/2000/svg" version="1.1" xmlns:xlink="http://www.w3.org/1999/xlink" xmlns:svgjs="http://svgjs.com/svgjs" width="1000" height="1000"><rect width="1000" height="1000" rx="200" ry="200" fill="#ecc5e7"></rect><g transform="matrix(25,0,0,25,102.59531563520432,271.58531761169434)"><svg xmlns="http://www.w3.org/2000/svg" version="1.1" xmlns:xlink="http://www.w3.org/1999/xlink" xmlns:svgjs="http://svgjs.com/svgjs" width="32" height="18"><svg width="32" height="18" viewBox="0 0 32 18" fill="none" xmlns="http://www.w3.org/2000/svg">
<path d="M3.026 8.05C3.026 8.05 3.318 6.845 2.312 5.806C1.305 4.764 0.0450002 4.764 0.0450002 4.764C0.0450002 4.764 -0.262 6.181 0.72 7.195C1.703 8.208 3.026 8.05 3.026 8.05Z" fill="black"></path>
<path d="M5.236 7.822C5.236 7.822 6.405 7.179 6.613 5.785C6.821 4.389 5.746 3.415 5.746 3.415C5.746 3.415 4.723 4.149 4.509 5.581C4.296 7.011 5.236 7.822 5.236 7.822Z" fill="black"></path>
<path d="M6.003 9.2C5.979 10.646 7.016 11.327 7.016 11.327C7.016 11.327 8.091 10.537 8.116 9.127C8.139 7.717 6.947 6.891 6.947 6.891C6.947 6.891 6.027 7.751 6.003 9.2Z" fill="black"></path>
<path d="M9.177 8.931C9.177 8.931 8.343 9.875 8.454 11.32C8.566 12.763 9.662 13.341 9.662 13.341C9.662 13.341 10.659 12.455 10.551 11.048C10.441 9.642 9.177 8.931 9.177 8.931Z" fill="black"></path>
<path d="M12.985 15.08C12.985 15.08 13.685 13.943 13.176 12.627C12.666 11.313 11.25 10.996 11.25 10.996C11.25 10.996 10.723 12.141 11.246 13.491C11.769 14.841 12.985 15.08 12.985 15.08Z" fill="black"></path>
<path d="M3.5 4.963C3.5 4.963 4.413 4.123 4.152 2.699C3.893 1.276 2.845 0.576 2.845 0.576C2.845 0.576 1.804 1.585 2.058 2.974C2.311 4.361 3.5 4.963 3.5 4.963Z" fill="black"></path>
<path d="M4.25 10.777C4.25 10.777 4.174 9.539 2.906 8.841C1.637 8.144 0.433001 8.515 0.433001 8.515C0.433001 8.515 0.558001 9.959 1.795 10.64C3.03 11.32 4.25 10.777 4.25 10.777Z" fill="black"></path>
<path d="M6.395 13.173C6.395 13.173 6.046 11.984 4.655 11.585C3.262 11.189 2.171 11.816 2.171 11.816C2.171 11.816 2.614 13.197 3.97 13.585C5.327 13.972 6.395 13.173 6.395 13.173Z" fill="black"></path>
<path d="M8.787 14.876C8.787 14.876 8.094 13.849 6.647 13.89C5.199 13.931 4.35 14.862 4.35 14.862C4.35 14.862 5.19 16.045 6.6 16.004C8.01 15.962 8.787 14.876 8.787 14.876Z" fill="black"></path>
<path d="M9.81 15.572C8.378 15.787 7.645 16.81 7.645 16.81C7.645 16.81 8.621 17.884 10.016 17.675C11.412 17.464 12.052 16.294 12.052 16.294C12.052 16.294 11.239 15.356 9.81 15.572Z" fill="black"></path>
<path d="M3.975 5.667L3.286 5.644C3.283 5.718 3.148 13.203 14.454 16.519L14.648 15.857C3.882 12.699 3.965 5.954 3.975 5.667Z" fill="black"></path>
<path d="M28.758 8.056C28.758 8.056 30.083 8.214 31.064 7.201C32.045 6.187 31.739 4.77 31.739 4.77C31.739 4.77 30.479 4.77 29.472 5.811C28.466 6.849 28.758 8.056 28.758 8.056Z" fill="black"></path>
<path d="M25.171 5.79C25.379 7.186 26.548 7.827 26.548 7.827C26.548 7.827 27.487 7.017 27.275 5.586C27.063 4.155 26.039 3.42 26.039 3.42C26.039 3.42 24.963 4.394 25.171 5.79Z" fill="black"></path>
<path d="M23.669 9.132C23.692 10.541 24.769 11.331 24.769 11.331C24.769 11.331 25.806 10.651 25.782 9.204C25.759 7.757 24.84 6.895 24.84 6.895C24.84 6.895 23.646 7.722 23.669 9.132Z" fill="black"></path>
<path d="M21.232 11.054C21.125 12.461 22.122 13.347 22.122 13.347C22.122 13.347 23.219 12.769 23.33 11.326C23.44 9.883 22.606 8.937 22.606 8.937C22.606 8.937 21.343 9.648 21.232 11.054Z" fill="black"></path>
<path d="M18.608 12.632C18.1 13.949 18.8 15.085 18.8 15.085C18.8 15.085 20.017 14.847 20.539 13.496C21.06 12.145 20.535 11.001 20.535 11.001C20.535 11.001 19.119 11.318 18.608 12.632Z" fill="black"></path>
<path d="M29.728 2.979C29.982 1.59 28.941 0.581 28.941 0.581C28.941 0.581 27.893 1.281 27.633 2.705C27.373 4.128 28.285 4.969 28.285 4.969C28.285 4.969 29.475 4.367 29.728 2.979Z" fill="black"></path>
<path d="M28.88 8.847C27.611 9.544 27.536 10.783 27.536 10.783C27.536 10.783 28.755 11.326 29.992 10.646C31.227 9.966 31.353 8.521 31.353 8.521C31.353 8.521 30.148 8.15 28.88 8.847Z" fill="black"></path>
<path d="M27.131 11.591C25.739 11.988 25.391 13.179 25.391 13.179C25.391 13.179 26.459 13.978 27.816 13.591C29.172 13.202 29.615 11.821 29.615 11.821C29.615 11.821 28.523 11.193 27.131 11.591Z" fill="black"></path>
<path d="M25.138 13.894C23.692 13.853 22.998 14.882 22.998 14.882C22.998 14.882 23.773 15.968 25.185 16.009C26.595 16.05 27.435 14.866 27.435 14.866C27.435 14.866 26.586 13.937 25.138 13.894Z" fill="black"></path>
<path d="M21.976 15.577C20.545 15.362 19.734 16.301 19.734 16.301C19.734 16.301 20.375 17.471 21.77 17.682C23.166 17.889 24.141 16.818 24.141 16.818C24.141 16.818 23.408 15.792 21.976 15.577Z" fill="black"></path>
<path d="M28.501 5.649L27.812 5.673C27.821 5.958 27.903 12.703 17.139 15.862L17.333 16.525C28.639 13.208 28.503 5.724 28.501 5.649Z" fill="black"></path>
<path d="M8.98535 3.40381C9.24902 3.40544 9.38086 3.48926 9.38086 3.65527C9.38086 3.73991 9.34017 3.80339 9.25879 3.8457C9.22135 3.86523 9.13672 3.87988 9.00488 3.88965C8.87305 3.89779 8.7762 3.93115 8.71436 3.98975C8.65413 4.04834 8.62402 4.13135 8.62402 4.23877C8.62402 4.34456 8.65332 4.41699 8.71191 4.45605C8.72656 4.46582 8.78597 4.48128 8.89014 4.50244C8.9943 4.52197 9.07243 4.55127 9.12451 4.59033C9.1766 4.62939 9.20264 4.68636 9.20264 4.76123C9.20264 4.83447 9.18799 4.88249 9.15869 4.90527C9.13102 4.92643 9.08301 4.94596 9.01465 4.96387C8.94629 4.98177 8.90967 4.99154 8.90479 4.99316C8.81364 5.02734 8.73958 5.10384 8.68262 5.22266C8.62565 5.33984 8.59717 5.57096 8.59717 5.91602L8.60205 6.08691C8.60368 6.12435 8.60449 6.16178 8.60449 6.19922L8.60938 6.31152C8.60938 6.36849 8.60938 6.42546 8.60938 6.48242C8.60938 6.74121 8.58252 6.89827 8.52881 6.95361C8.4751 7.00895 8.36768 7.03662 8.20654 7.03662C8.11377 7.03662 8.05192 7.00407 8.021 6.93896C7.99007 6.87223 7.97461 6.73958 7.97461 6.54102L7.98682 6.14307L7.98926 6.08691L7.99414 6.02832C7.9974 5.97786 7.99902 5.94043 7.99902 5.91602L8.00146 5.80371V5.68896C8.00146 5.41064 7.99089 5.23812 7.96973 5.17139C7.94857 5.10465 7.90218 5.03548 7.83057 4.96387C7.75895 4.89225 7.72314 4.80029 7.72314 4.68799C7.72314 4.618 7.76546 4.55046 7.8501 4.48535C7.93473 4.41862 7.99089 4.34538 8.01855 4.26562C8.1569 3.87988 8.25863 3.6569 8.32373 3.59668C8.46208 3.4681 8.6639 3.40381 8.9292 3.40381H8.98535ZM11.2857 6.57275C11.2857 6.73226 11.2556 6.83561 11.1954 6.88281C11.1368 6.93001 11.0644 6.95361 10.9781 6.95361C10.8935 6.95361 10.8341 6.94548 10.7999 6.9292C10.7657 6.91292 10.7332 6.88932 10.7022 6.8584C10.6729 6.82585 10.655 6.80957 10.6485 6.80957C10.642 6.80957 10.5598 6.84212 10.402 6.90723C10.2441 6.97233 10.0862 7.00488 9.92832 7.00488C9.77207 7.00488 9.6321 6.97233 9.5084 6.90723C9.27728 6.78353 9.14463 6.54834 9.11045 6.20166C9.10068 6.09587 9.0958 5.78825 9.0958 5.27881L9.08848 4.76855V4.70752C9.08848 4.59521 9.16335 4.53906 9.31309 4.53906H9.37168C9.52142 4.53906 9.61745 4.60091 9.65977 4.72461C9.67604 4.77181 9.68418 5.0249 9.68418 5.48389C9.68418 5.94124 9.70452 6.21956 9.74521 6.31885C9.80869 6.4751 9.92995 6.55322 10.109 6.55322C10.2164 6.55322 10.3092 6.52799 10.3873 6.47754C10.4671 6.42546 10.5248 6.36442 10.5606 6.29443C10.6241 6.17399 10.6559 5.94694 10.6559 5.61328L10.6607 5.48633L10.6632 5.29346C10.6632 4.97607 10.6803 4.78239 10.7145 4.7124C10.76 4.61963 10.8723 4.57324 11.0514 4.57324C11.1393 4.57324 11.1962 4.62288 11.2223 4.72217C11.2369 4.77751 11.2442 4.94271 11.2442 5.21777L11.2857 6.44824V6.57275ZM12.1628 6.64355V6.75342C12.1628 6.87223 12.1384 6.94548 12.0896 6.97314C12.0424 6.99919 11.9577 7.01221 11.8356 7.01221H11.7062C11.4719 7.01221 11.3547 6.82829 11.3547 6.46045V6.42139L11.3693 6.26025C11.3742 6.21305 11.3767 6.18701 11.3767 6.18213L11.3864 6.104C11.3946 6.01449 11.3986 5.91113 11.3986 5.79395V5.44238L11.4011 5.35449V5.08594L11.4035 4.94922V4.68066L11.406 4.59033V4.32178L11.4084 4.23145C11.4084 4.09961 11.4019 3.98161 11.3889 3.87744C11.3758 3.77327 11.3693 3.68294 11.3693 3.60645C11.3693 3.52832 11.3848 3.47298 11.4157 3.44043C11.4483 3.40625 11.5118 3.38916 11.6062 3.38916H11.7355C11.882 3.39079 11.9634 3.44206 11.9797 3.54297C11.9862 3.58854 11.9895 3.79118 11.9895 4.15088L11.987 4.19727C11.987 4.22656 11.987 4.25586 11.987 4.28516L11.9846 4.3291C11.9846 4.3584 11.9846 4.3877 11.9846 4.41699L11.9821 4.55127V4.72949L11.9797 4.77588V4.99805L11.9772 5.04443V5.2666L11.9748 5.40088V5.67188L11.9797 5.84521C11.9797 5.96403 12.0098 6.11865 12.07 6.30908C12.1319 6.49951 12.1628 6.611 12.1628 6.64355ZM13.0179 6.64355V6.75342C13.0179 6.87223 12.9935 6.94548 12.9446 6.97314C12.8974 6.99919 12.8128 7.01221 12.6907 7.01221H12.5613C12.327 7.01221 12.2098 6.82829 12.2098 6.46045V6.42139L12.2244 6.26025C12.2293 6.21305 12.2317 6.18701 12.2317 6.18213L12.2415 6.104C12.2496 6.01449 12.2537 5.91113 12.2537 5.79395V5.44238L12.2562 5.35449V5.08594L12.2586 4.94922V4.68066L12.261 4.59033V4.32178L12.2635 4.23145C12.2635 4.09961 12.257 3.98161 12.2439 3.87744C12.2309 3.77327 12.2244 3.68294 12.2244 3.60645C12.2244 3.52832 12.2399 3.47298 12.2708 3.44043C12.3034 3.40625 12.3668 3.38916 12.4612 3.38916H12.5906C12.7371 3.39079 12.8185 3.44206 12.8348 3.54297C12.8413 3.58854 12.8445 3.79118 12.8445 4.15088L12.8421 4.19727C12.8421 4.22656 12.8421 4.25586 12.8421 4.28516L12.8396 4.3291C12.8396 4.3584 12.8396 4.3877 12.8396 4.41699L12.8372 4.55127V4.72949L12.8348 4.77588V4.99805L12.8323 5.04443V5.2666L12.8299 5.40088V5.67188L12.8348 5.84521C12.8348 5.96403 12.8649 6.11865 12.9251 6.30908C12.9869 6.49951 13.0179 6.611 13.0179 6.64355ZM14.183 3.40381C14.4467 3.40544 14.5785 3.48926 14.5785 3.65527C14.5785 3.73991 14.5378 3.80339 14.4564 3.8457C14.419 3.86523 14.3344 3.87988 14.2025 3.88965C14.0707 3.89779 13.9739 3.93115 13.912 3.98975C13.8518 4.04834 13.8217 4.13135 13.8217 4.23877C13.8217 4.34456 13.851 4.41699 13.9096 4.45605C13.9242 4.46582 13.9836 4.48128 14.0878 4.50244C14.192 4.52197 14.2701 4.55127 14.3222 4.59033C14.3743 4.62939 14.4003 4.68636 14.4003 4.76123C14.4003 4.83447 14.3856 4.88249 14.3563 4.90527C14.3287 4.92643 14.2807 4.94596 14.2123 4.96387C14.1439 4.98177 14.1073 4.99154 14.1024 4.99316C14.0113 5.02734 13.9372 5.10384 13.8803 5.22266C13.8233 5.33984 13.7948 5.57096 13.7948 5.91602L13.7997 6.08691C13.8013 6.12435 13.8021 6.16178 13.8021 6.19922L13.807 6.31152C13.807 6.36849 13.807 6.42546 13.807 6.48242C13.807 6.74121 13.7802 6.89827 13.7265 6.95361C13.6728 7.00895 13.5653 7.03662 13.4042 7.03662C13.3114 7.03662 13.2496 7.00407 13.2187 6.93896C13.1877 6.87223 13.1723 6.73958 13.1723 6.54102L13.1845 6.14307L13.1869 6.08691L13.1918 6.02832C13.1951 5.97786 13.1967 5.94043 13.1967 5.91602L13.1991 5.80371V5.68896C13.1991 5.41064 13.1885 5.23812 13.1674 5.17139C13.1462 5.10465 13.0998 5.03548 13.0282 4.96387C12.9566 4.89225 12.9208 4.80029 12.9208 4.68799C12.9208 4.618 12.9631 4.55046 13.0478 4.48535C13.1324 4.41862 13.1885 4.34538 13.2162 4.26562C13.3546 3.87988 13.4563 3.6569 13.5214 3.59668C13.6597 3.4681 13.8616 3.40381 14.1269 3.40381H14.183ZM14.3203 4.90527V4.82959C14.3203 4.73519 14.3398 4.66602 14.3789 4.62207C14.4196 4.57812 14.4839 4.55615 14.5718 4.55615H14.6084C14.6914 4.55615 14.7769 4.58545 14.8647 4.64404C14.8924 4.66195 14.9209 4.69043 14.9502 4.72949C14.9795 4.76693 14.9998 4.78564 15.0112 4.78564C15.0243 4.78564 15.0584 4.7653 15.1138 4.72461C15.1707 4.68392 15.235 4.6473 15.3066 4.61475C15.3783 4.58057 15.4678 4.56348 15.5752 4.56348C15.6826 4.56348 15.7616 4.58626 15.812 4.63184C15.8625 4.67741 15.8877 4.72135 15.8877 4.76367C15.8877 4.88086 15.8503 4.97445 15.7754 5.04443C15.7428 5.07536 15.6639 5.09082 15.5386 5.09082C15.4132 5.09082 15.3123 5.10872 15.2358 5.14453C15.1593 5.18034 15.0983 5.24544 15.0527 5.33984C15.0072 5.43262 14.9844 5.70117 14.9844 6.14551C14.9844 6.58822 14.9665 6.84049 14.9307 6.90234C14.8965 6.96419 14.7972 6.99512 14.6328 6.99512H14.5913L14.5498 6.99268C14.4587 6.99268 14.4009 6.97803 14.3765 6.94873C14.3521 6.91943 14.3398 6.82422 14.3398 6.66309L14.3618 6.21143L14.3667 6.08691V5.87451L14.3643 5.74756V5.66211L14.3618 5.5376C14.3618 5.50993 14.3618 5.48226 14.3618 5.45459L14.3569 5.33008C14.3569 5.26172 14.3504 5.18034 14.3374 5.08594C14.326 4.98991 14.3203 4.92969 14.3203 4.90527ZM16.6476 6.58984H16.7477C16.9251 6.58984 17.0577 6.52148 17.1456 6.38477C17.2335 6.24805 17.2774 6.06413 17.2774 5.83301V5.70361C17.2774 5.46761 17.2302 5.28288 17.1358 5.14941C17.0431 5.01432 16.9137 4.94678 16.7477 4.94678H16.6744C16.5133 4.94678 16.3839 5.01025 16.2862 5.13721C16.1902 5.26253 16.1422 5.4432 16.1422 5.6792V5.83545C16.1422 6.06331 16.1861 6.24642 16.274 6.38477C16.3635 6.52148 16.4881 6.58984 16.6476 6.58984ZM17.8756 5.64014V5.81104C17.8756 5.98356 17.8487 6.15202 17.795 6.31641C17.7429 6.48079 17.6713 6.61344 17.5802 6.71436C17.489 6.81364 17.3702 6.89583 17.2237 6.96094C17.0789 7.02604 16.9202 7.05859 16.7477 7.05859H16.6183C16.2879 7.05859 16.0201 6.94141 15.815 6.70703C15.636 6.50358 15.5465 6.21956 15.5465 5.85498V5.68408C15.5465 5.50179 15.5742 5.33333 15.6295 5.17871C15.6865 5.02409 15.7621 4.89714 15.8565 4.79785C15.9526 4.69857 16.0755 4.62126 16.2252 4.56592C16.3766 4.51058 16.5418 4.48291 16.7208 4.48291L16.7647 4.48535C16.9161 4.48535 17.0618 4.51139 17.2018 4.56348C17.4931 4.67415 17.6917 4.87516 17.7975 5.1665C17.8495 5.30811 17.8756 5.46598 17.8756 5.64014ZM17.8322 4.91992C17.8322 4.79134 17.8444 4.70426 17.8688 4.65869C17.8949 4.61312 17.9608 4.59033 18.0666 4.59033C18.174 4.59033 18.2521 4.60824 18.301 4.64404C18.3107 4.65055 18.3335 4.67497 18.3693 4.71729C18.4068 4.75798 18.4353 4.77832 18.4548 4.77832C18.4759 4.77832 18.5223 4.75879 18.5939 4.71973C18.7811 4.61556 18.9382 4.56348 19.0651 4.56348H19.1921C19.3109 4.56348 19.4224 4.5887 19.5266 4.63916C19.7333 4.74007 19.8627 4.90934 19.9147 5.14697C19.9408 5.26253 19.9538 5.43424 19.9538 5.66211L19.9733 6.27734L19.9953 6.76318C19.9953 6.8348 19.9799 6.88444 19.9489 6.91211C19.9196 6.93978 19.8505 6.95361 19.7414 6.95361C19.5754 6.95361 19.4761 6.88851 19.4436 6.7583C19.4224 6.67529 19.4037 6.43115 19.3874 6.02588C19.3728 5.62061 19.3467 5.36914 19.3093 5.27148C19.1856 5.11523 19.0521 5.02083 18.9089 4.98828C18.7119 4.98828 18.5736 5.05827 18.4938 5.19824C18.4336 5.30241 18.4035 5.50911 18.4035 5.81836L18.3962 6.01367L18.3913 6.27734C18.3913 6.5931 18.3807 6.77865 18.3596 6.83398C18.3221 6.93164 18.2188 6.98047 18.0495 6.98047C17.9453 6.98047 17.8794 6.96419 17.8518 6.93164C17.8241 6.89746 17.8103 6.84212 17.8103 6.76562L17.8127 6.70215C17.8127 6.63704 17.8127 6.57275 17.8127 6.50928L17.8225 6.12109V5.66455L17.8249 5.60107C17.8249 5.55876 17.8249 5.51644 17.8249 5.47412L17.8298 5.15918L17.8322 5.09814V4.91992ZM21.3533 6.79004C21.3533 6.9349 21.2052 7.00732 20.909 7.00732C20.6128 7.00732 20.4036 6.90641 20.2815 6.70459C20.1888 6.54834 20.1424 6.2334 20.1424 5.75977V5.65479L20.1375 5.50342L20.1351 5.45215L20.1326 5.29834C20.1326 5.18278 20.1245 5.10872 20.1082 5.07617C20.0936 5.04199 20.0447 5.00212 19.9617 4.95654C19.8803 4.91097 19.8396 4.85156 19.8396 4.77832V4.73438C19.8396 4.60742 19.886 4.52197 19.9788 4.47803C20.0716 4.43245 20.1261 4.39014 20.1424 4.35107C20.144 4.34619 20.157 4.27458 20.1814 4.13623C20.2075 3.99788 20.2368 3.9043 20.2693 3.85547C20.3035 3.80664 20.3784 3.78223 20.4939 3.78223C20.6111 3.78223 20.6852 3.81803 20.7161 3.88965C20.7275 3.91569 20.7454 4.00114 20.7698 4.146C20.7942 4.29085 20.8219 4.382 20.8528 4.41943C20.8838 4.45524 20.9578 4.48454 21.075 4.50732C21.1922 4.53011 21.2654 4.5529 21.2947 4.57568C21.3257 4.59847 21.3411 4.65381 21.3411 4.7417C21.3411 4.82959 21.3045 4.88981 21.2312 4.92236C21.202 4.93538 21.1328 4.94678 21.0237 4.95654C20.9147 4.96468 20.8406 4.99072 20.8016 5.03467C20.7641 5.07861 20.7454 5.23161 20.7454 5.49365L20.743 5.54492C20.7413 5.5791 20.7405 5.61328 20.7405 5.64746L20.7381 5.69873V5.80371C20.7381 6.13411 20.7601 6.33187 20.804 6.39697C20.8496 6.46208 20.9285 6.50114 21.0408 6.51416C21.1531 6.52718 21.2329 6.55241 21.2801 6.58984C21.3289 6.62728 21.3533 6.69401 21.3533 6.79004ZM21.7641 6.28223C21.7641 6.36523 21.8056 6.43441 21.8886 6.48975C21.9716 6.54508 22.0611 6.57275 22.1571 6.57275H22.2279C22.3923 6.57275 22.5209 6.51335 22.6137 6.39453C22.6544 6.34245 22.6747 6.23665 22.6747 6.07715L22.6771 6.04785V5.98682C22.6771 5.88428 22.6226 5.83301 22.5136 5.83301H22.3158C22.1368 5.83301 21.9993 5.86312 21.9032 5.92334C21.8072 5.98356 21.7592 6.0568 21.7592 6.14307V6.2334C21.7624 6.25618 21.7641 6.27246 21.7641 6.28223ZM22.6503 5.30078C22.6503 5.06152 22.4997 4.94189 22.1986 4.94189C22.088 4.94189 21.9496 4.96305 21.7836 5.00537C21.6192 5.04769 21.515 5.06885 21.4711 5.06885C21.4271 5.06885 21.3865 5.04688 21.349 5.00293C21.3132 4.95898 21.2953 4.90365 21.2953 4.83691C21.2953 4.72786 21.3604 4.64242 21.4906 4.58057C21.6729 4.4943 21.8926 4.45117 22.1498 4.45117H22.2108C22.6291 4.45117 22.927 4.56999 23.1044 4.80762C23.1728 4.89876 23.2175 5.00781 23.2387 5.13477C23.2598 5.26009 23.2704 5.479 23.2704 5.7915C23.2704 6.10238 23.281 6.32048 23.3021 6.4458C23.3233 6.57113 23.3339 6.67611 23.3339 6.76074C23.3339 6.84375 23.3176 6.90479 23.2851 6.94385C23.2525 6.98128 23.1825 7 23.0751 7C22.9677 7 22.8936 6.98942 22.8529 6.96826C22.8122 6.9471 22.774 6.92025 22.7382 6.8877C22.704 6.85514 22.6763 6.83887 22.6552 6.83887C22.634 6.83887 22.5404 6.87223 22.3744 6.93896C22.2084 7.00407 22.0652 7.03662 21.9447 7.03662H21.8861C21.6518 7.03662 21.4678 6.96582 21.3344 6.82422C21.2009 6.68099 21.1342 6.50846 21.1342 6.30664V6.18701C21.1342 6.09098 21.1602 5.99414 21.2123 5.89648C21.3555 5.6263 21.7095 5.47982 22.2743 5.45703C22.4696 5.44889 22.5811 5.4375 22.6088 5.42285C22.6365 5.40658 22.6503 5.36589 22.6503 5.30078ZM24.1987 6.64355V6.75342C24.1987 6.87223 24.1743 6.94548 24.1255 6.97314C24.0783 6.99919 23.9937 7.01221 23.8716 7.01221H23.7422C23.5078 7.01221 23.3906 6.82829 23.3906 6.46045V6.42139L23.4053 6.26025C23.4102 6.21305 23.4126 6.18701 23.4126 6.18213L23.4224 6.104C23.4305 6.01449 23.4346 5.91113 23.4346 5.79395V5.44238L23.437 5.35449V5.08594L23.4395 4.94922V4.68066L23.4419 4.59033V4.32178L23.4443 4.23145C23.4443 4.09961 23.4378 3.98161 23.4248 3.87744C23.4118 3.77327 23.4053 3.68294 23.4053 3.60645C23.4053 3.52832 23.4207 3.47298 23.4517 3.44043C23.4842 3.40625 23.5477 3.38916 23.6421 3.38916H23.7715C23.918 3.39079 23.9993 3.44206 24.0156 3.54297C24.0221 3.58854 24.0254 3.79118 24.0254 4.15088L24.0229 4.19727C24.0229 4.22656 24.0229 4.25586 24.0229 4.28516L24.0205 4.3291C24.0205 4.3584 24.0205 4.3877 24.0205 4.41699L24.0181 4.55127V4.72949L24.0156 4.77588V4.99805L24.0132 5.04443V5.2666L24.0107 5.40088V5.67188L24.0156 5.84521C24.0156 5.96403 24.0457 6.11865 24.106 6.30908C24.1678 6.49951 24.1987 6.611 24.1987 6.64355Z" fill="black"></path>
</svg></svg></g></svg>