<?xml version="1.0" standalone="no"?>
<!DOCTYPE svg PUBLIC "-//W3C//DTD SVG 20010904//EN"
 "http://www.w3.org/TR/2001/REC-SVG-20010904/DTD/svg10.dtd">
<svg version="1.0" xmlns="http://www.w3.org/2000/svg"
 width="1024.000000pt" height="1024.000000pt" viewBox="0 0 1024.000000 1024.000000"
 preserveAspectRatio="xMidYMid meet">
<metadata>
Created by potrace 1.14, written by Peter Selinger 2001-2017
</metadata>
<g transform="translate(0.000000,1024.000000) scale(0.100000,-0.100000)"
fill="#000000" stroke="none">
<path d="M868 7768 c-204 -252 -268 -532 -187 -813 57 -197 201 -387 390 -513
48 -33 51 -33 64 -16 7 11 27 35 44 54 44 51 121 211 132 275 1 6 6 21 11 35
12 31 20 104 20 190 1 209 -83 445 -227 635 -43 57 -185 195 -200 195 -7 0
-28 -19 -47 -42z"/>
<path d="M9209 7773 c-197 -168 -342 -433 -374 -687 -8 -62 -7 -192 1 -231 3
-16 7 -39 9 -50 18 -111 100 -277 184 -373 23 -27 29 -24 121 44 313 236 444
605 338 954 -21 70 -116 260 -130 260 -4 0 -8 6 -8 13 -1 12 -80 107 -91 107
-3 0 -25 -17 -50 -37z"/>
<path d="M3669 6905 c-27 -15 -40 -70 -27 -120 7 -25 5 -525 -3 -845 -3 -108
12 -148 63 -173 33 -16 135 -15 166 2 19 10 22 20 22 69 0 31 -9 84 -19 117
-33 104 -34 121 -35 527 -1 349 -3 399 -17 413 -21 21 -117 27 -150 10z"/>
<path d="M3952 6912 c-34 -5 -41 -29 -35 -127 5 -75 7 -461 4 -625 -1 -25 -1
-52 0 -60 1 -8 -2 -37 -5 -65 -7 -55 -8 -135 -2 -177 8 -62 61 -106 126 -102
19 1 50 2 67 3 66 2 74 75 28 231 l-29 95 2 391 c3 367 2 392 -16 414 -14 17
-29 23 -68 24 -27 1 -59 0 -72 -2z"/>
<path d="M7521 6908 c-27 -10 -34 -42 -27 -130 8 -86 7 -624 0 -718 -10 -133
-9 -182 4 -222 23 -68 53 -86 137 -83 68 3 93 12 101 38 11 31 11 89 1 110 -5
10 -10 26 -12 35 -2 9 -12 49 -22 88 -17 64 -19 111 -17 458 1 450 6 428 -89
431 -30 0 -65 -2 -76 -7z"/>
<path d="M2736 6890 c-26 -10 -56 -26 -66 -35 -22 -20 -51 -79 -88 -175 -20
-53 -41 -88 -72 -118 -39 -39 -42 -45 -37 -79 4 -21 16 -49 27 -63 52 -64 53
-69 57 -183 3 -62 4 -116 4 -122 -11 -189 -8 -295 7 -326 15 -30 22 -34 63
-37 60 -4 97 11 110 45 7 17 12 117 13 248 2 121 6 234 11 250 14 51 61 101
104 112 l39 10 2 -141 c2 -312 12 -371 77 -441 45 -49 133 -83 198 -76 11 1
27 2 35 3 29 0 95 19 139 39 44 21 44 21 71 1 58 -43 150 -30 171 25 14 36 1
618 -15 674 -9 33 -44 42 -102 27 -56 -13 -65 -37 -70 -188 -9 -300 -17 -349
-65 -393 -49 -46 -151 -56 -192 -20 -49 45 -50 48 -61 438 -4 136 -8 150 -46
170 -24 13 -114 14 -127 2 -2 -3 -26 4 -54 14 -27 11 -57 19 -68 19 -20 0 -41
38 -41 75 0 66 44 103 129 111 64 5 100 22 107 50 11 42 -4 74 -41 90 -49 20
-160 17 -219 -6z"/>
<path d="M4410 6895 c-40 -13 -75 -38 -105 -77 -6 -7 -28 -58 -49 -113 -29
-73 -50 -110 -78 -137 -21 -20 -38 -45 -39 -55 -3 -46 5 -71 36 -109 43 -52
49 -88 46 -264 -8 -381 -6 -390 73 -390 64 0 103 17 112 48 4 15 8 119 9 232
1 113 5 221 9 240 10 46 51 116 73 125 52 23 85 23 90 0 3 -11 6 -153 6 -317
1 -163 6 -300 10 -305 5 -4 39 -8 77 -8 68 0 105 16 108 48 0 6 3 98 6 202 3
105 8 208 11 230 14 80 72 125 162 125 41 0 44 -1 37 -22 -31 -97 -38 -221
-19 -328 22 -129 120 -238 240 -269 11 -2 67 -5 125 -5 98 0 109 2 171 32 76
36 121 83 156 159 14 29 25 53 26 53 1 0 1 -45 -1 -99 -3 -90 -1 -101 16 -110
45 -24 130 -13 151 20 9 15 14 81 17 223 5 241 15 299 56 338 59 55 126 52
197 -9 51 -43 53 -54 66 -318 10 -202 16 -229 58 -247 42 -17 76 -18 109 -2
l26 13 -4 128 c-13 435 -18 471 -78 536 -48 53 -98 72 -191 72 -70 0 -89 -4
-149 -32 -37 -18 -70 -33 -73 -33 -2 0 -15 12 -29 27 -19 20 -36 27 -77 31
-80 6 -89 -6 -90 -130 -1 -27 -4 -48 -7 -48 -3 0 -14 16 -23 35 -40 84 -124
146 -231 170 -87 19 -219 7 -272 -26 -17 -10 -33 -17 -36 -14 -3 3 -13 -4 -23
-15 -18 -19 -18 -19 -53 11 -33 29 -39 31 -94 26 -43 -3 -73 -13 -109 -36 -28
-17 -52 -31 -55 -31 -3 0 -18 14 -34 30 -16 17 -33 31 -37 31 -4 1 -19 3 -33
6 -38 6 -70 4 -87 -5 -9 -6 -28 -2 -51 9 -20 10 -53 21 -72 24 -19 3 -41 12
-48 19 -20 20 -22 78 -5 113 17 36 48 51 118 58 65 7 92 21 104 58 14 38 -15
82 -60 91 -51 10 -141 6 -189 -9z m1023 -499 c46 -32 54 -42 73 -91 28 -74 26
-252 -4 -317 -33 -70 -71 -93 -157 -93 -77 0 -109 15 -141 69 -38 64 -50 229
-24 327 15 53 66 108 110 118 49 12 117 5 143 -13z"/>
<path d="M1757 6833 c-37 -38 -79 -84 -93 -103 -37 -50 -94 -139 -105 -164 -5
-12 -13 -28 -18 -36 -16 -26 -43 -94 -58 -145 -40 -141 -46 -182 -47 -310 0
-140 19 -222 80 -350 43 -90 139 -224 161 -225 32 0 225 177 272 250 9 14 22
31 29 38 7 8 32 55 57 105 131 271 116 556 -44 817 -25 41 -52 84 -61 94 -45
57 -84 96 -94 96 -6 0 -42 -30 -79 -67z"/>
<path d="M8288 6859 c-117 -128 -219 -343 -234 -494 -10 -109 -10 -132 1 -210
23 -151 85 -303 169 -412 47 -62 199 -206 239 -228 l36 -19 21 24 c12 14 30
35 41 48 57 66 139 233 153 312 3 14 9 47 14 74 10 51 9 257 -2 274 -3 5 -8
25 -10 44 -6 48 -17 91 -27 103 -4 6 -8 15 -9 20 -11 92 -141 313 -246 419
-40 41 -94 86 -101 86 -5 0 -25 -18 -45 -41z"/>
<path d="M6498 6776 c-15 -11 -30 -54 -52 -156 -3 -14 -19 -34 -38 -44 -46
-27 -57 -45 -58 -89 0 -28 7 -44 26 -62 15 -14 31 -25 35 -25 22 0 30 -54 34
-218 3 -97 7 -188 10 -202 3 -14 7 -37 10 -51 13 -72 58 -129 120 -153 26 -11
79 -17 133 -17 44 0 112 26 112 43 0 5 12 1 28 -9 80 -55 172 -58 305 -12 l89
31 32 -23 c36 -28 129 -36 159 -14 21 15 29 83 16 151 -5 26 -11 128 -14 228
-3 99 -6 190 -8 201 -6 38 -29 95 -38 95 -5 0 -9 6 -9 13 0 16 -74 72 -115 87
-105 40 -318 30 -402 -20 -37 -22 -58 -26 -48 -10 6 10 -25 25 -73 35 -44 10
-46 10 -62 20 -21 14 -38 53 -44 100 -7 57 -22 92 -45 104 -27 15 -82 13 -103
-3z m327 -366 c10 -31 46 -34 145 -12 144 31 243 18 265 -36 15 -37 16 -79 2
-91 -8 -6 -52 -14 -98 -17 -80 -5 -144 -11 -144 -14 0 -1 -10 -3 -23 -6 -53
-10 -125 -49 -156 -85 -42 -50 -55 -95 -51 -175 l3 -65 -31 6 c-55 11 -62 14
-74 34 -7 11 -15 35 -19 53 -7 37 -7 302 0 333 2 11 5 28 5 37 1 23 25 34 86
43 27 3 51 8 54 11 11 11 30 2 36 -16z m419 -290 c8 -8 11 -50 8 -117 -4 -78
-117 -128 -213 -95 -52 18 -71 43 -74 100 -3 52 5 69 47 96 45 29 208 40 232
16z"/>
<path d="M12 6466 c-4 -6 -8 -71 -8 -144 -2 -192 40 -364 117 -480 16 -24 29
-45 29 -48 0 -17 133 -151 195 -196 71 -50 181 -107 240 -123 162 -45 164 -45
287 -50 l97 -4 7 45 c6 44 0 207 -10 253 -12 56 -39 138 -59 180 -60 131 -187
280 -317 372 -62 44 -195 119 -210 119 -4 0 -25 8 -46 17 -22 9 -43 18 -49 19
-5 1 -36 9 -68 18 -106 28 -195 37 -205 22z"/>
<path d="M10140 6477 c-3 -3 -30 -7 -60 -11 -75 -7 -109 -15 -134 -28 -12 -6
-23 -11 -26 -10 -15 5 -123 -35 -198 -74 -102 -52 -196 -120 -278 -202 -59
-58 -144 -171 -144 -190 0 -6 -4 -12 -8 -14 -12 -5 -52 -103 -75 -183 -20 -72
-32 -251 -21 -313 l7 -34 91 3 c50 1 129 11 176 21 90 19 250 77 250 90 0 4 6
8 14 8 20 0 162 109 211 162 71 76 88 103 166 260 45 91 77 415 48 486 -8 19
-16 31 -19 29z"/>
<path d="M1066 6192 c-13 -3 -15 -16 -11 -85 2 -45 5 -82 6 -82 0 0 2 -14 4
-30 2 -17 6 -44 9 -60 3 -17 8 -46 11 -65 16 -87 36 -173 65 -270 17 -58 32
-109 33 -115 31 -117 204 -494 283 -617 16 -23 28 -46 29 -50 0 -4 7 -15 15
-25 8 -10 31 -43 49 -73 40 -64 135 -194 168 -230 13 -14 23 -28 23 -33 0 -4
15 -25 34 -45 19 -20 45 -50 57 -66 12 -16 32 -38 43 -50 123 -129 166 -172
237 -241 78 -75 161 -149 205 -185 11 -8 54 -43 96 -78 42 -34 81 -62 86 -62
6 0 12 -4 14 -8 10 -26 361 -259 548 -364 25 -14 63 -36 85 -48 49 -28 411
-210 418 -210 3 0 34 -13 69 -29 108 -49 308 -130 458 -185 84 -30 328 -113
355 -120 55 -14 72 -20 83 -29 6 -5 12 -7 12 -3 0 3 16 0 35 -9 42 -17 34 -27
75 107 l27 93 -71 23 c-39 12 -78 24 -86 26 -8 2 -22 6 -30 9 -8 3 -71 24
-140 47 -69 22 -132 44 -140 47 -8 3 -17 7 -20 7 -3 1 -21 7 -40 15 -19 7 -53
20 -75 28 -22 9 -49 19 -60 24 -11 5 -56 22 -100 40 -300 116 -844 391 -981
496 -17 12 -34 23 -37 23 -19 0 -362 251 -472 345 -16 14 -52 45 -79 68 -55
46 -232 221 -312 307 -295 319 -544 743 -663 1130 -17 58 -36 119 -41 135 -31
99 -65 332 -69 467 l-1 27 -94 3 c-51 2 -101 2 -110 0z"/>
<path d="M9097 6194 c-3 -3 -46 -6 -97 -6 -50 -1 -93 -4 -95 -8 -2 -4 -7 -47
-10 -96 -11 -148 -10 -143 -50 -334 -69 -335 -291 -789 -549 -1120 -236 -304
-625 -660 -946 -866 -25 -16 -49 -33 -55 -37 -5 -4 -46 -30 -90 -57 -44 -27
-85 -54 -92 -60 -7 -5 -15 -10 -17 -10 -3 0 -45 -23 -93 -51 -94 -54 -396
-206 -503 -253 -74 -33 -100 -44 -190 -81 -36 -15 -74 -31 -85 -36 -131 -56
-503 -185 -692 -240 -24 -7 -43 -17 -43 -24 0 -10 42 -159 55 -192 3 -9 12
-10 32 -3 15 5 98 31 183 58 136 44 378 128 435 151 11 5 31 13 45 18 14 6 50
21 80 33 30 12 64 26 75 31 45 18 125 53 200 87 99 44 468 231 475 240 3 4 27
18 54 32 28 14 68 36 90 51 134 84 279 180 331 217 33 24 71 51 83 60 37 26
166 126 172 132 3 3 34 30 70 60 36 30 80 69 99 85 45 40 245 240 296 296 274
301 505 663 649 1015 39 97 95 257 96 276 1 4 8 27 16 50 13 38 36 132 50 208
3 14 7 32 9 40 3 8 7 33 10 55 4 22 8 51 10 65 19 115 15 236 -8 214z"/>
<path d="M2193 5764 c-13 -14 -38 -47 -55 -72 -18 -26 -35 -49 -38 -52 -3 -3
-11 -16 -18 -29 -8 -13 -23 -40 -34 -59 -124 -221 -160 -561 -83 -787 24 -73
72 -165 118 -225 49 -66 145 -160 162 -160 20 0 152 145 201 221 61 94 112
211 129 299 2 8 4 15 5 15 5 0 10 61 13 149 8 199 -54 380 -185 547 -49 63
-167 179 -182 179 -6 0 -21 -12 -33 -26z"/>
<path d="M7919 5773 c-9 -10 -38 -38 -65 -64 -117 -109 -231 -300 -259 -435
-54 -262 9 -529 175 -740 50 -62 141 -154 155 -154 7 0 28 13 46 30 19 16 37
30 42 30 4 0 7 7 7 15 0 8 4 15 10 15 15 0 109 138 140 205 24 53 50 121 56
150 16 75 22 151 20 250 -4 122 -6 139 -32 235 -8 30 -17 64 -19 75 -3 11 -9
29 -14 40 -6 11 -22 46 -35 78 -45 103 -175 287 -203 287 -5 0 -16 -8 -24 -17z"/>
<path d="M298 5305 c-2 -2 -23 -6 -48 -9 -117 -16 -112 -13 -105 -65 11 -78
73 -257 102 -292 7 -9 10 -19 6 -22 -3 -4 -1 -7 5 -7 7 0 12 -5 12 -10 0 -19
72 -115 129 -170 87 -86 194 -153 316 -197 48 -17 64 -21 170 -39 52 -9 187
-9 245 0 25 4 57 9 71 11 50 7 144 38 151 49 8 12 1 66 -12 100 -4 12 -8 23
-8 26 0 3 -5 18 -11 33 -6 16 -11 31 -11 34 0 9 -54 117 -61 123 -3 3 -18 23
-32 45 -47 73 -196 215 -226 215 -6 0 -11 3 -11 8 0 4 -10 12 -23 18 -12 6
-42 22 -67 35 -25 13 -47 24 -50 24 -3 1 -21 8 -40 16 -43 19 -179 56 -240 65
-43 6 -257 13 -262 9z"/>
<path d="M9708 5305 c-2 -1 -28 -5 -58 -8 -178 -20 -328 -74 -480 -173 -64
-42 -163 -134 -197 -184 -9 -14 -23 -31 -30 -38 -15 -16 -92 -169 -98 -197 -3
-11 -12 -49 -20 -84 -9 -35 -12 -67 -8 -71 10 -9 96 -36 143 -45 114 -21 235
-25 340 -11 221 28 454 172 573 355 42 63 104 184 113 219 2 10 13 49 23 87
31 110 29 121 -21 130 -79 13 -272 27 -280 20z"/>
<path d="M2909 5108 c-76 -102 -163 -302 -183 -419 -3 -19 -9 -47 -13 -64 -3
-16 -6 -93 -6 -170 0 -202 37 -331 136 -482 57 -86 147 -179 220 -226 l28 -18
40 43 c87 94 177 255 212 378 25 88 28 108 32 230 2 95 -1 131 -20 205 -38
151 -105 271 -216 389 -55 59 -184 166 -200 166 -3 0 -16 -15 -30 -32z"/>
<path d="M7204 5121 c-11 -10 -25 -20 -31 -22 -24 -9 -146 -124 -191 -182 -94
-118 -162 -267 -180 -392 -8 -60 -8 -212 1 -276 11 -73 68 -239 93 -269 7 -8
13 -19 14 -25 3 -17 87 -137 129 -184 l39 -45 42 29 c45 31 138 121 182 175
45 56 117 209 140 300 16 64 22 117 22 215 1 117 -2 155 -19 248 -20 107 -119
331 -180 408 -29 37 -40 40 -61 20z"/>
<path d="M3597 4473 c-11 -19 -47 -142 -52 -178 -15 -98 -18 -126 -19 -215 -3
-165 49 -372 126 -511 52 -92 142 -195 228 -261 41 -31 77 -54 79 -52 2 2 11
-2 20 -9 17 -15 108 -55 154 -68 20 -6 27 -4 27 7 0 8 5 14 10 14 6 0 10 8 10
18 0 10 4 22 9 27 10 11 58 154 66 200 45 241 7 466 -112 660 -38 62 -146 172
-213 218 -25 17 -47 33 -50 36 -3 3 -27 17 -55 31 -27 14 -51 28 -53 33 -2 4
-10 7 -17 7 -7 0 -33 8 -57 18 -56 25 -96 34 -101 25z"/>
<path d="M6525 4468 c-51 -17 -170 -72 -176 -81 -3 -5 -8 -7 -10 -6 -2 2 -29
-13 -59 -33 -205 -132 -337 -336 -375 -578 -13 -82 -8 -237 11 -317 10 -43 18
-80 19 -83 9 -42 59 -165 77 -187 7 -8 25 -6 71 9 34 12 64 25 65 30 2 4 8 8
14 8 6 0 38 16 72 36 118 71 275 255 324 379 6 17 17 44 23 60 7 17 13 35 14
40 2 6 8 30 15 55 18 67 21 82 24 121 2 20 5 40 8 45 11 23 -1 264 -17 334 -3
14 -8 34 -10 45 -10 45 -42 129 -51 131 -5 1 -22 -2 -39 -8z"/>
<path d="M1137 4335 c-1 -2 -33 -5 -72 -9 -38 -3 -80 -8 -92 -11 -13 -3 -33
-7 -45 -10 -13 -2 -59 -17 -103 -31 -82 -27 -125 -50 -125 -65 0 -41 139 -265
207 -334 104 -104 230 -183 353 -218 151 -44 337 -49 465 -13 6 1 30 8 55 15
58 16 170 65 224 98 42 25 43 27 32 57 -17 47 -83 155 -135 217 -87 105 -246
211 -371 248 -25 7 -56 17 -70 21 -14 5 -43 12 -65 15 -22 4 -51 9 -65 12 -26
4 -188 11 -193 8z"/>
<path d="M8957 4335 c-1 -2 -38 -5 -82 -8 -72 -6 -194 -32 -257 -56 -12 -5
-27 -10 -33 -11 -44 -12 -181 -100 -245 -157 -48 -43 -140 -156 -140 -171 0
-6 -4 -12 -8 -14 -4 -1 -21 -29 -37 -61 -22 -44 -26 -62 -19 -75 20 -31 219
-123 296 -136 15 -3 31 -7 35 -9 30 -19 331 -24 351 -7 1 1 5 3 10 4 98 22
254 82 272 105 3 3 25 20 50 36 104 70 208 197 283 345 l48 95 -55 26 c-49 24
-164 59 -241 74 -42 8 -222 24 -228 20z"/>
<path d="M2097 3554 c-1 -1 -31 -4 -67 -8 -201 -19 -416 -112 -588 -256 -23
-19 -42 -41 -42 -50 0 -21 144 -159 221 -211 118 -80 255 -132 385 -145 97
-10 114 -10 114 -5 0 3 25 7 56 8 51 1 139 17 174 30 8 4 17 7 20 8 115 40
261 130 351 216 30 30 63 67 73 81 l18 27 -62 61 c-155 152 -349 237 -557 244
-51 1 -94 2 -96 0z"/>
<path d="M7947 3554 c-2 -2 -19 -4 -38 -5 -18 -2 -38 -5 -44 -8 -5 -3 -16 -6
-25 -7 -153 -17 -404 -170 -470 -286 -18 -31 144 -180 275 -254 55 -30 171
-81 193 -84 4 0 23 -5 42 -10 47 -12 143 -23 205 -23 233 -1 475 117 658 322
l39 43 -32 30 c-47 43 -137 108 -150 108 -5 0 -10 4 -10 9 0 5 -10 13 -22 17
-13 4 -25 10 -28 13 -21 27 -248 105 -353 121 -69 10 -234 20 -240 14z"/>
<path d="M3150 3018 c-25 -4 -59 -10 -76 -12 -51 -7 -209 -64 -282 -103 -37
-19 -96 -56 -132 -81 -70 -49 -210 -183 -210 -201 0 -12 124 -114 173 -143 49
-28 163 -84 189 -93 33 -11 38 -12 41 -15 4 -4 44 -11 122 -24 309 -49 648
105 845 385 l40 57 -38 32 c-52 46 -157 112 -224 143 -32 14 -58 24 -58 21 0
-3 -8 0 -17 5 -10 5 -35 12 -57 15 -21 4 -43 9 -48 12 -15 10 -220 11 -268 2z"/>
<path d="M6828 3025 c-2 -2 -27 -6 -57 -10 -73 -9 -173 -41 -245 -77 -83 -42
-206 -135 -206 -156 0 -10 47 -79 79 -116 68 -78 205 -196 229 -196 6 0 12 -3
14 -7 6 -15 166 -88 217 -99 192 -43 328 -39 481 13 70 24 211 94 237 117 6 6
41 34 77 61 36 28 66 56 66 63 0 12 -86 102 -155 163 -72 62 -230 149 -345
189 -68 23 -69 23 -165 41 -54 10 -221 20 -227 14z"/>
</g>
</svg>
